<mxfile host="app.diagrams.net" modified="2024-03-28T10:41:55.904Z" agent="Mozilla/5.0 (Windows NT 10.0; Win64; x64; rv:124.0) Gecko/20100101 Firefox/124.0" version="24.2.0" etag="F39fztDrHHFbbz2IbzNR" type="github">
  <diagram name="Page-1" id="CVmNYWQFcq2EgmVIEUED">
    <mxGraphModel>
      <root>
        <mxCell id="0" />
        <mxCell id="1" parent="0" />
      </root>
    </mxGraphModel>
  </diagram>
</mxfile>
